<svg width="16" height="16" viewBox="0 0 16 16" fill="none" xmlns="http://www.w3.org/2000/svg">
<path d="M7.99431 1.9986H3.33093C2.97756 1.9986 2.63866 2.13897 2.38878 2.38885C2.13891 2.63872 1.99854 2.97762 1.99854 3.33099V12.6577C1.99854 13.0111 2.13891 13.35 2.38878 13.5999C2.63866 13.8498 2.97756 13.9901 3.33093 13.9901H12.6577C13.0111 13.9901 13.35 13.8498 13.5998 13.5999C13.8497 13.35 13.9901 13.0111 13.9901 12.6577V7.99437" stroke="#0A0A0F" stroke-width="1.33239" stroke-linecap="round" stroke-linejoin="round"/>
<path d="M12.2416 1.74876C12.5066 1.48373 12.8661 1.33484 13.2409 1.33484C13.6157 1.33484 13.9752 1.48373 14.2402 1.74876C14.5052 2.01379 14.6541 2.37325 14.6541 2.74806C14.6541 3.12286 14.5052 3.48232 14.2402 3.74735L8.23576 9.75245C8.07757 9.9105 7.88215 10.0262 7.6675 10.0889L5.75351 10.6485C5.69619 10.6652 5.63542 10.6662 5.57758 10.6514C5.51973 10.6366 5.46693 10.6065 5.42471 10.5642C5.38249 10.522 5.35239 10.4692 5.33757 10.4114C5.32275 10.3535 5.32375 10.2928 5.34047 10.2354L5.90008 8.32146C5.96305 8.10698 6.07897 7.91178 6.23717 7.75386L12.2416 1.74876Z" stroke="#0A0A0F" stroke-width="1.33239" stroke-linecap="round" stroke-linejoin="round"/>
</svg>
