<svg width="12" height="12" viewBox="0 0 12 12" fill="none" xmlns="http://www.w3.org/2000/svg">
<g clip-path="url(#clip0_402_470)">
<path d="M4.96305 7.74182C4.91846 7.56897 4.82836 7.41122 4.70214 7.285C4.57591 7.15877 4.41816 7.06867 4.24531 7.02408L1.18106 6.23392C1.12878 6.21908 1.08277 6.18759 1.05 6.14424C1.01724 6.10088 0.999512 6.04802 0.999512 5.99367C0.999512 5.93933 1.01724 5.88647 1.05 5.84311C1.08277 5.79975 1.12878 5.76827 1.18106 5.75343L4.24531 4.96277C4.4181 4.91822 4.57581 4.8282 4.70203 4.70206C4.82825 4.57593 4.91838 4.41829 4.96305 4.24553L5.75321 1.18127C5.7679 1.12879 5.79936 1.08255 5.84278 1.04961C5.8862 1.01667 5.93921 0.99884 5.99371 0.99884C6.04821 0.99884 6.10122 1.01667 6.14464 1.04961C6.18806 1.08255 6.21952 1.12879 6.2342 1.18127L7.02387 4.24553C7.06846 4.41838 7.15856 4.57612 7.28478 4.70235C7.41101 4.82858 7.56875 4.91867 7.74161 4.96327L10.8059 5.75293C10.8586 5.76746 10.905 5.79888 10.9381 5.84237C10.9713 5.88586 10.9892 5.93901 10.9892 5.99367C10.9892 6.04834 10.9713 6.10149 10.9381 6.14498C10.905 6.18846 10.8586 6.21988 10.8059 6.23442L7.74161 7.02408C7.56875 7.06867 7.41101 7.15877 7.28478 7.285C7.15856 7.41122 7.06846 7.56897 7.02387 7.74182L6.2337 10.8061C6.21902 10.8586 6.18756 10.9048 6.14414 10.9377C6.10072 10.9707 6.04771 10.9885 5.99321 10.9885C5.93871 10.9885 5.8857 10.9707 5.84228 10.9377C5.79886 10.9048 5.7674 10.8586 5.75271 10.8061L4.96305 7.74182Z" stroke="#A1F301" stroke-width="0.998942" stroke-linecap="round" stroke-linejoin="round"/>
<path d="M9.98926 1.49841V3.4963" stroke="#A1F301" stroke-width="0.998942" stroke-linecap="round" stroke-linejoin="round"/>
<path d="M10.9881 2.49738H8.99023" stroke="#A1F301" stroke-width="0.998942" stroke-linecap="round" stroke-linejoin="round"/>
<path d="M1.99805 8.49103V9.48997" stroke="#A1F301" stroke-width="0.998942" stroke-linecap="round" stroke-linejoin="round"/>
<path d="M2.49748 8.99048H1.49854" stroke="#A1F301" stroke-width="0.998942" stroke-linecap="round" stroke-linejoin="round"/>
</g>
<defs>
<clipPath id="clip0_402_470">
<rect width="11.9873" height="11.9873" fill="white"/>
</clipPath>
</defs>
</svg>
