<svg width="32" height="32" viewBox="0 0 32 32" fill="none" xmlns="http://www.w3.org/2000/svg">
<path d="M25.3291 3.9993H6.66571C5.19321 3.9993 3.99951 5.193 3.99951 6.6655V25.3289C3.99951 26.8014 5.19321 27.9951 6.66571 27.9951H25.3291C26.8016 27.9951 27.9953 26.8014 27.9953 25.3289V6.6655C27.9953 5.193 26.8016 3.9993 25.3291 3.9993Z" stroke="white" stroke-width="2.6662" stroke-linecap="round" stroke-linejoin="round"/>
<path d="M11.9977 14.6641C13.4702 14.6641 14.6639 13.4704 14.6639 11.9979C14.6639 10.5254 13.4702 9.3317 11.9977 9.3317C10.5252 9.3317 9.33154 10.5254 9.33154 11.9979C9.33154 13.4704 10.5252 14.6641 11.9977 14.6641Z" stroke="white" stroke-width="2.6662" stroke-linecap="round" stroke-linejoin="round"/>
<path d="M27.995 19.9964L23.8811 15.8825C23.3811 15.3826 22.7031 15.1018 21.9961 15.1018C21.2891 15.1018 20.6111 15.3826 20.1111 15.8825L7.99854 27.995" stroke="white" stroke-width="2.6662" stroke-linecap="round" stroke-linejoin="round"/>
</svg>
