<svg width="16" height="16" viewBox="0 0 16 16" fill="none" xmlns="http://www.w3.org/2000/svg">
<path d="M5.99561 11.9915V3.33098L13.99 1.99859V10.6591" stroke="white" stroke-width="1.8" stroke-linecap="round" stroke-linejoin="round"/>
<path d="M3.99713 13.9901C5.10092 13.9901 5.99572 13.0953 5.99572 11.9915C5.99572 10.8877 5.10092 9.99295 3.99713 9.99295C2.89333 9.99295 1.99854 10.8877 1.99854 11.9915C1.99854 13.0953 2.89333 13.9901 3.99713 13.9901Z" stroke="white" stroke-width="1.8" stroke-linecap="round" stroke-linejoin="round"/>
<path d="M11.9918 12.6577C13.0955 12.6577 13.9903 11.7629 13.9903 10.6591C13.9903 9.55535 13.0955 8.66055 11.9918 8.66055C10.888 8.66055 9.99316 9.55535 9.99316 10.6591C9.99316 11.7629 10.888 12.6577 11.9918 12.6577Z" stroke="white" stroke-width="1.8" stroke-linecap="round" stroke-linejoin="round"/>
</svg>
