<svg width="16" height="16" viewBox="0 0 16 16" fill="none" xmlns="http://www.w3.org/2000/svg">
<g clip-path="url(#clip0_463_5106)">
<path d="M2.66504 1.33252V14.6565L3.99743 13.9903L5.32983 14.6565L6.66222 13.9903L7.99461 14.6565L9.32701 13.9903L10.6594 14.6565L11.9918 13.9903L13.3242 14.6565V1.33252L11.9918 1.99872L10.6594 1.33252L9.32701 1.99872L7.99461 1.33252L6.66222 1.99872L5.32983 1.33252L3.99743 1.99872L2.66504 1.33252Z" stroke="#A1F301" stroke-width="1.33239" stroke-linecap="round" stroke-linejoin="round"/>
<path d="M10.6587 5.32959H6.66149C6.30812 5.32959 5.96922 5.46997 5.71935 5.71984C5.46948 5.96971 5.3291 6.30861 5.3291 6.66198C5.3291 7.01536 5.46948 7.35426 5.71935 7.60413C5.96922 7.854 6.30812 7.99438 6.66149 7.99438H9.32628C9.67965 7.99438 10.0186 8.13475 10.2684 8.38463C10.5183 8.6345 10.6587 8.9734 10.6587 9.32677C10.6587 9.68014 10.5183 10.019 10.2684 10.2689C10.0186 10.5188 9.67965 10.6592 9.32628 10.6592H5.3291" stroke="#A1F301" stroke-width="1.33239" stroke-linecap="round" stroke-linejoin="round"/>
<path d="M7.99414 11.6582V4.33008" stroke="#A1F301" stroke-width="1.33239" stroke-linecap="round" stroke-linejoin="round"/>
</g>
<defs>
<clipPath id="clip0_463_5106">
<rect width="15.9887" height="15.9887" fill="white"/>
</clipPath>
</defs>
</svg>
