<svg width="12" height="12" viewBox="0 0 12 12" fill="none" xmlns="http://www.w3.org/2000/svg">
<g clip-path="url(#clip0_1_6078)">
<path d="M10.8889 4.99469C11.117 6.11416 10.9544 7.27798 10.4283 8.2921C9.90214 9.30621 9.04425 10.1093 7.99767 10.5674C6.95109 11.0256 5.77908 11.1111 4.67708 10.8097C3.57509 10.5083 2.60972 9.83826 1.94197 8.91125C1.27422 7.98425 0.944449 6.85634 1.00765 5.71562C1.07086 4.5749 1.52321 3.49033 2.28929 2.64277C3.05536 1.79521 4.08885 1.23589 5.21739 1.05809C6.34594 0.880289 7.50133 1.09475 8.49089 1.66572" stroke="#A1F301" stroke-width="0.998942" stroke-linecap="round" stroke-linejoin="round"/>
<path d="M4.49512 5.49419L5.99353 6.9926L10.9882 1.99789" stroke="#A1F301" stroke-width="0.998942" stroke-linecap="round" stroke-linejoin="round"/>
</g>
<defs>
<clipPath id="clip0_1_6078">
<rect width="11.9873" height="11.9873" fill="white"/>
</clipPath>
</defs>
</svg>
