<svg width="20" height="20" viewBox="0 0 20 20" fill="none" xmlns="http://www.w3.org/2000/svg">
<path d="M16.6583 10.828C16.6583 14.9926 13.7431 17.0749 10.2781 18.2826C10.0967 18.3441 9.89958 18.3412 9.72006 18.2743C6.24677 17.0749 3.33154 14.9926 3.33154 10.828V4.9975C3.33154 4.7766 3.4193 4.56474 3.5755 4.40853C3.7317 4.25233 3.94356 4.16458 4.16447 4.16458C5.83031 4.16458 7.91262 3.16507 9.3619 1.89903C9.53836 1.74827 9.76283 1.66544 9.99492 1.66544C10.227 1.66544 10.4515 1.74827 10.6279 1.89903C12.0856 3.1734 14.1595 4.16458 15.8254 4.16458C16.0463 4.16458 16.2581 4.25233 16.4143 4.40853C16.5705 4.56474 16.6583 4.7766 16.6583 4.9975V10.828Z" stroke="#06B6D4" stroke-width="1.66584" stroke-linecap="round" stroke-linejoin="round"/>
</svg>
