<svg width="20" height="20" viewBox="0 0 20 20" fill="none" xmlns="http://www.w3.org/2000/svg">
<path d="M15.8253 5.83022V3.33146C15.8253 3.11055 15.7375 2.8987 15.5813 2.74249C15.4251 2.58629 15.2133 2.49854 14.9924 2.49854H4.16438C3.72257 2.49854 3.29886 2.67404 2.98645 2.98645C2.67404 3.29886 2.49854 3.72257 2.49854 4.16438C2.49854 4.60619 2.67404 5.0299 2.98645 5.34231C3.29886 5.65472 3.72257 5.83022 4.16438 5.83022H16.6582C16.8791 5.83022 17.091 5.91798 17.2472 6.07418C17.4034 6.23039 17.4911 6.44224 17.4911 6.66315V9.99484M17.4911 9.99484H14.9924C14.5506 9.99484 14.1268 10.1703 13.8144 10.4828C13.502 10.7952 13.3265 11.2189 13.3265 11.6607C13.3265 12.1025 13.502 12.5262 13.8144 12.8386C14.1268 13.151 14.5506 13.3265 14.9924 13.3265H17.4911C17.712 13.3265 17.9239 13.2388 18.0801 13.0826C18.2363 12.9264 18.3241 12.7145 18.3241 12.4936V10.8278C18.3241 10.6069 18.2363 10.395 18.0801 10.2388C17.9239 10.0826 17.712 9.99484 17.4911 9.99484Z" stroke="#A1F301" stroke-width="1.66584" stroke-linecap="round" stroke-linejoin="round"/>
<path d="M2.49854 4.16455V15.8255C2.49854 16.2673 2.67404 16.691 2.98645 17.0034C3.29886 17.3158 3.72257 17.4913 4.16438 17.4913H16.6582C16.8791 17.4913 17.091 17.4036 17.2472 17.2474C17.4034 17.0912 17.4911 16.8793 17.4911 16.6584V13.3267" stroke="#A1F301" stroke-width="1.66584" stroke-linecap="round" stroke-linejoin="round"/>
</svg>
