<svg width="24" height="24" viewBox="0 0 24 24" fill="none" xmlns="http://www.w3.org/2000/svg">
<path d="M14.9947 1.9993H5.99783C5.46759 1.9993 4.95906 2.20994 4.58412 2.58488C4.20917 2.95982 3.99854 3.46835 3.99854 3.99859V19.993C3.99854 20.5232 4.20917 21.0317 4.58412 21.4067C4.95906 21.7816 5.46759 21.9923 5.99783 21.9923H17.9936C18.5239 21.9923 19.0324 21.7816 19.4073 21.4067C19.7823 21.0317 19.9929 20.5232 19.9929 19.993V6.99754L14.9947 1.9993Z" stroke="#A1F301" stroke-width="2.49912" stroke-linecap="round" stroke-linejoin="round"/>
<path d="M13.9951 1.9993V5.99789C13.9951 6.52814 14.2058 7.03667 14.5807 7.41161C14.9556 7.78655 15.4642 7.99719 15.9944 7.99719H19.993" stroke="#A1F301" stroke-width="2.49912" stroke-linecap="round" stroke-linejoin="round"/>
<path d="M9.99707 8.99683H7.99707" stroke="#A1F301" stroke-width="2.49912" stroke-linecap="round" stroke-linejoin="round"/>
<path d="M15.9943 12.9954H7.99707" stroke="#A1F301" stroke-width="2.49912" stroke-linecap="round" stroke-linejoin="round"/>
<path d="M15.9943 16.994H7.99707" stroke="#A1F301" stroke-width="2.49912" stroke-linecap="round" stroke-linejoin="round"/>
</svg>
