<svg width="11" height="12" viewBox="0 0 11 12" fill="none" xmlns="http://www.w3.org/2000/svg">
<path d="M8.41877 11.5119C7.7659 12.1447 7.05307 12.0448 6.36689 11.745C5.64073 11.4386 4.97454 11.4253 4.20841 11.745C3.24909 12.1581 2.74278 12.0382 2.16985 11.5119C-1.08118 8.1609 -0.601523 3.05784 3.0892 2.8713C3.98857 2.91794 4.61479 3.36429 5.14109 3.40426C5.9272 3.24437 6.68 2.7847 7.5194 2.84466C8.52536 2.9246 9.28482 3.32432 9.78447 4.04381C7.70594 5.28959 8.19892 8.02766 10.1042 8.79379C9.72451 9.79308 9.23153 10.7857 8.41211 11.5185L8.41877 11.5119ZM5.07447 2.83133C4.97454 1.34572 6.18035 0.119915 7.56604 0C7.75923 1.71879 6.00714 2.99788 5.07447 2.83133Z" fill="white"/>
</svg>
