<svg width="20" height="20" viewBox="0 0 20 20" fill="none" xmlns="http://www.w3.org/2000/svg">
<g clip-path="url(#clip0_463_2524)">
<path d="M11.0229 16.8685L17.4914 10.2451" stroke="white" stroke-opacity="0.6" stroke-width="1.66584" stroke-linecap="round" stroke-linejoin="round"/>
<path d="M13.327 4.99748L6.31874 12.149C6.00644 12.4613 5.831 12.885 5.831 13.3267C5.831 13.7684 6.00644 14.1921 6.31874 14.5045C6.63113 14.8168 7.05477 14.9922 7.49649 14.9922C7.93822 14.9922 8.36185 14.8168 8.67425 14.5045L15.6825 7.35299C16.307 6.7282 16.6579 5.88093 16.6579 4.99748C16.6579 4.11404 16.307 3.26676 15.6825 2.64198C15.0577 2.01738 14.2104 1.6665 13.327 1.6665C12.4435 1.6665 11.5962 2.01738 10.9714 2.64198L3.9624 9.79262C3.0251 10.7299 2.49854 12.0012 2.49854 13.3267C2.49854 14.6522 3.0251 15.9235 3.9624 16.8608C4.8997 17.7981 6.17095 18.3247 7.49649 18.3247C8.82203 18.3247 10.0933 17.7981 11.0306 16.8608" stroke="white" stroke-opacity="0.6" stroke-width="1.66584" stroke-linecap="round" stroke-linejoin="round"/>
</g>
<defs>
<clipPath id="clip0_463_2524">
<rect width="19.9901" height="19.9901" fill="white"/>
</clipPath>
</defs>
</svg>
