<svg width="24" height="24" viewBox="0 0 24 24" fill="none" xmlns="http://www.w3.org/2000/svg">
<path d="M5.99805 21.9923V3.99859C5.99805 3.46835 6.20869 2.95982 6.58363 2.58488C6.95857 2.20994 7.4671 1.9993 7.99734 1.9993H15.9945C16.5248 1.9993 17.0333 2.20994 17.4082 2.58488C17.7832 2.95982 17.9938 3.46835 17.9938 3.99859V21.9923H5.99805Z" stroke="#06B6D4" stroke-width="1.9993" stroke-linecap="round" stroke-linejoin="round"/>
<path d="M5.99859 11.9958H3.9993C3.46905 11.9958 2.96052 12.2064 2.58558 12.5814C2.21064 12.9563 2 13.4648 2 13.9951V19.993C2 20.5232 2.21064 21.0317 2.58558 21.4067C2.96052 21.7816 3.46905 21.9923 3.9993 21.9923H5.99859" stroke="#06B6D4" stroke-width="1.9993" stroke-linecap="round" stroke-linejoin="round"/>
<path d="M17.9941 8.99684H19.9934C20.5237 8.99684 21.0322 9.20748 21.4072 9.58242C21.7821 9.95736 21.9927 10.4659 21.9927 10.9961V19.993C21.9927 20.5232 21.7821 21.0317 21.4072 21.4067C21.0322 21.7816 20.5237 21.9923 19.9934 21.9923H17.9941" stroke="#06B6D4" stroke-width="1.9993" stroke-linecap="round" stroke-linejoin="round"/>
<path d="M9.99609 5.99789H13.9947" stroke="#06B6D4" stroke-width="1.9993" stroke-linecap="round" stroke-linejoin="round"/>
<path d="M9.99609 9.99648H13.9947" stroke="#06B6D4" stroke-width="1.9993" stroke-linecap="round" stroke-linejoin="round"/>
<path d="M9.99609 13.9951H13.9947" stroke="#06B6D4" stroke-width="1.9993" stroke-linecap="round" stroke-linejoin="round"/>
<path d="M9.99609 17.9937H13.9947" stroke="#06B6D4" stroke-width="1.9993" stroke-linecap="round" stroke-linejoin="round"/>
</svg>
