<svg width="40" height="40" viewBox="0 0 40 40" fill="none" xmlns="http://www.w3.org/2000/svg">
<path d="M24.1649 6.6662H15.8321L11.6658 11.6659H6.66611C5.78212 11.6659 4.93433 12.017 4.30925 12.6421C3.68417 13.2672 3.33301 14.115 3.33301 14.999V29.9979C3.33301 30.8819 3.68417 31.7297 4.30925 32.3548C4.93433 32.9799 5.78212 33.331 6.66611 33.331H33.3309C34.2149 33.331 35.0627 32.9799 35.6878 32.3548C36.3129 31.7297 36.664 30.8819 36.664 29.9979V14.999C36.664 14.115 36.3129 13.2672 35.6878 12.6421C35.0627 12.017 34.2149 11.6659 33.3309 11.6659H28.3313L24.1649 6.6662Z" stroke="#A1F301" stroke-width="3.3331" stroke-linecap="round" stroke-linejoin="round"/>
<path d="M19.9987 26.6648C22.7599 26.6648 24.9983 24.4264 24.9983 21.6652C24.9983 18.9039 22.7599 16.6655 19.9987 16.6655C17.2374 16.6655 14.999 18.9039 14.999 21.6652C14.999 24.4264 17.2374 26.6648 19.9987 26.6648Z" stroke="#A1F301" stroke-width="3.3331" stroke-linecap="round" stroke-linejoin="round"/>
</svg>
