<svg width="24" height="24" viewBox="0 0 24 24" fill="none" xmlns="http://www.w3.org/2000/svg">
<path d="M11.5581 3.26483C11.6012 3.18646 11.6646 3.12111 11.7416 3.0756C11.8187 3.03008 11.9065 3.00607 11.9959 3.00607C12.0854 3.00607 12.1732 3.03008 12.2502 3.0756C12.3272 3.12111 12.3906 3.18646 12.4338 3.26483L15.3847 8.86685C15.4551 8.99657 15.5533 9.1091 15.6723 9.19636C15.7914 9.28362 15.9282 9.34344 16.0731 9.37154C16.218 9.39963 16.3673 9.3953 16.5103 9.35886C16.6533 9.32241 16.7864 9.25476 16.9002 9.16075L21.1757 5.49804C21.2578 5.43129 21.3589 5.39229 21.4646 5.38668C21.5702 5.38107 21.6749 5.40912 21.7636 5.4668C21.8523 5.52448 21.9204 5.60881 21.9581 5.70766C21.9958 5.8065 22.0012 5.91477 21.9734 6.01686L19.1404 16.2593C19.0826 16.4688 18.958 16.6539 18.7855 16.7863C18.6131 16.9187 18.4022 16.9913 18.1848 16.993H5.80811C5.59052 16.9915 5.37937 16.919 5.20671 16.7866C5.03405 16.6542 4.90932 16.469 4.85144 16.2593L2.01944 6.01786C1.9917 5.91576 1.99707 5.8075 2.03478 5.70866C2.07248 5.60981 2.14058 5.52548 2.22927 5.4678C2.31796 5.41012 2.42266 5.38207 2.5283 5.38768C2.63395 5.39329 2.73509 5.43229 2.81716 5.49904L7.09166 9.16175C7.20542 9.25576 7.33858 9.32341 7.48158 9.35986C7.62459 9.3963 7.77389 9.40063 7.91877 9.37254C8.06364 9.34444 8.2005 9.28461 8.31952 9.19736C8.43853 9.1101 8.53675 8.99757 8.60712 8.86786L11.5581 3.26483Z" stroke="white" stroke-width="1.9993" stroke-linecap="round" stroke-linejoin="round"/>
<path d="M4.99805 20.9926H18.9931" stroke="white" stroke-width="1.9993" stroke-linecap="round" stroke-linejoin="round"/>
</svg>
