<svg width="24" height="24" viewBox="0 0 24 24" fill="none" xmlns="http://www.w3.org/2000/svg">
<path d="M11.9949 7.99719C16.9637 7.99719 20.9917 6.65451 20.9917 4.99824C20.9917 3.34197 16.9637 1.9993 11.9949 1.9993C7.02607 1.9993 2.99805 3.34197 2.99805 4.99824C2.99805 6.65451 7.02607 7.99719 11.9949 7.99719Z" stroke="#06B6D4" stroke-width="1.9993" stroke-linecap="round" stroke-linejoin="round"/>
<path d="M2.99805 4.99823V18.9933C2.99805 19.7887 3.94592 20.5515 5.63316 21.1139C7.32039 21.6763 9.60877 21.9923 11.9949 21.9923C14.381 21.9923 16.6694 21.6763 18.3566 21.1139C20.0438 20.5515 20.9917 19.7887 20.9917 18.9933V4.99823" stroke="#06B6D4" stroke-width="1.9993" stroke-linecap="round" stroke-linejoin="round"/>
<path d="M2.99805 11.9958C2.99805 12.7911 3.94592 13.5539 5.63316 14.1163C7.32039 14.6788 9.60877 14.9947 11.9949 14.9947C14.381 14.9947 16.6694 14.6788 18.3566 14.1163C20.0438 13.5539 20.9917 12.7911 20.9917 11.9958" stroke="#06B6D4" stroke-width="1.9993" stroke-linecap="round" stroke-linejoin="round"/>
</svg>
