<svg width="16" height="16" viewBox="0 0 16 16" fill="none" xmlns="http://www.w3.org/2000/svg">
<g clip-path="url(#clip0_1_7888)">
<path d="M14.1056 4.53815C14.4579 4.18601 14.6558 3.70838 14.6558 3.21032C14.6559 2.71226 14.4581 2.23458 14.106 1.88235C13.7538 1.53013 13.2762 1.33222 12.7781 1.33215C12.2801 1.33209 11.8024 1.52988 11.4502 1.88202L2.55912 10.7751C2.40444 10.9293 2.29005 11.1192 2.22602 11.328L1.34598 14.2273C1.32876 14.2849 1.32746 14.3461 1.34221 14.4044C1.35697 14.4627 1.38723 14.5159 1.42978 14.5584C1.47234 14.6009 1.5256 14.6311 1.58392 14.6457C1.64223 14.6604 1.70343 14.659 1.76102 14.6417L4.66097 13.7623C4.86961 13.6989 5.05947 13.5852 5.21392 13.4312L14.1056 4.53815Z" stroke="#A1F301" stroke-width="1.33239" stroke-linecap="round" stroke-linejoin="round"/>
</g>
<defs>
<clipPath id="clip0_1_7888">
<rect width="15.9887" height="15.9887" fill="white"/>
</clipPath>
</defs>
</svg>
