<svg width="40" height="40" viewBox="0 0 40 40" fill="none" xmlns="http://www.w3.org/2000/svg">
<path d="M11.7093 20.2829C11.6399 20.096 11.6399 19.8903 11.7093 19.7034C12.3852 18.0645 13.5325 16.6633 15.0057 15.6772C16.479 14.6912 18.2118 14.1648 19.9846 14.1648C21.7574 14.1648 23.4902 14.6912 24.9634 15.6772C26.4367 16.6633 27.584 18.0645 28.2599 19.7034C28.3293 19.8903 28.3293 20.096 28.2599 20.2829C27.584 21.9218 26.4367 23.3231 24.9634 24.3091C23.4902 25.2951 21.7574 25.8215 19.9846 25.8215C18.2118 25.8215 16.479 25.2951 15.0057 24.3091C13.5325 23.3231 12.3852 21.9218 11.7093 20.2829Z" stroke="#A1F301" stroke-width="1.66539" stroke-linecap="round" stroke-linejoin="round"/>
<path d="M19.9844 22.4912C21.3641 22.4912 22.4825 21.3728 22.4825 19.9932C22.4825 18.6135 21.3641 17.4951 19.9844 17.4951C18.6048 17.4951 17.4863 18.6135 17.4863 19.9932C17.4863 21.3728 18.6048 22.4912 19.9844 22.4912Z" stroke="#A1F301" stroke-width="1.66539" stroke-linecap="round" stroke-linejoin="round"/>
</svg>
