<svg width="20" height="20" viewBox="0 0 20 20" fill="none" xmlns="http://www.w3.org/2000/svg">
<path d="M1.71709 10.2821C1.64769 10.0951 1.64769 9.88949 1.71709 9.70253C2.39298 8.06367 3.54028 6.6624 5.01353 5.67638C6.48678 4.69035 8.21963 4.16397 9.99239 4.16397C11.7652 4.16397 13.498 4.69035 14.9713 5.67638C16.4445 6.6624 17.5918 8.06367 18.2677 9.70253C18.3371 9.88949 18.3371 10.0951 18.2677 10.2821C17.5918 11.921 16.4445 13.3222 14.9713 14.3082C13.498 15.2943 11.7652 15.8207 9.99239 15.8207C8.21963 15.8207 6.48678 15.2943 5.01353 14.3082C3.54028 13.3222 2.39298 11.921 1.71709 10.2821Z" stroke="#A1F301" stroke-width="1.66539" stroke-linecap="round" stroke-linejoin="round"/>
<path d="M9.99222 12.4904C11.3719 12.4904 12.4903 11.372 12.4903 9.99231C12.4903 8.61266 11.3719 7.49423 9.99222 7.49423C8.61257 7.49423 7.49414 8.61266 7.49414 9.99231C7.49414 11.372 8.61257 12.4904 9.99222 12.4904Z" stroke="#A1F301" stroke-width="1.66539" stroke-linecap="round" stroke-linejoin="round"/>
</svg>
