<svg width="16" height="16" viewBox="0 0 16 16" fill="none" xmlns="http://www.w3.org/2000/svg">
<g clip-path="url(#clip0_1_605)">
<path d="M15.0294 8.16093C15.0294 7.6413 14.9828 7.14165 14.8962 6.66199H7.99438V9.49998H11.9383C11.7651 10.4127 11.2454 11.1855 10.466 11.7051V13.5505H12.8443C14.23 12.2714 15.0294 10.3927 15.0294 8.16093Z" fill="#4285F4"/>
<path d="M7.99444 15.3225C9.97304 15.3225 11.6319 14.6696 12.8443 13.5504L10.466 11.7051C9.81315 12.1448 8.9804 12.4112 7.99444 12.4112C6.08912 12.4112 4.47026 11.1255 3.89067 9.39337H1.45239V11.2854C2.65821 13.677 5.12979 15.3225 7.99444 15.3225Z" fill="#A1F301"/>
<path d="M3.89065 9.38672C3.74408 8.94703 3.65748 8.48069 3.65748 7.99437C3.65748 7.50804 3.74408 7.04171 3.89065 6.60202V4.71002H1.45237C0.952724 5.69599 0.66626 6.80854 0.66626 7.99437C0.66626 9.1802 0.952724 10.2927 1.45237 11.2787L3.35103 9.79976L3.89065 9.38672Z" fill="#FBBC05"/>
<path d="M7.99444 3.58414C9.07367 3.58414 10.033 3.95721 10.7991 4.6767L12.8976 2.57818C11.6252 1.39235 9.97304 0.666199 7.99444 0.666199C5.12979 0.666199 2.65821 2.3117 1.45239 4.71001L3.89067 6.602C4.47026 4.86989 6.08912 3.58414 7.99444 3.58414Z" fill="#EA4335"/>
</g>
<defs>
<clipPath id="clip0_1_605">
<rect width="15.9887" height="15.9887" fill="white"/>
</clipPath>
</defs>
</svg>
