<svg width="20" height="20" viewBox="0 0 20 20" fill="none" xmlns="http://www.w3.org/2000/svg">
<path d="M9.99197 18.3193C14.5908 18.3193 18.3189 14.5912 18.3189 9.99234C18.3189 5.3935 14.5908 1.66541 9.99197 1.66541C5.39313 1.66541 1.66504 5.3935 1.66504 9.99234C1.66504 14.5912 5.39313 18.3193 9.99197 18.3193Z" stroke="#06B6D4" stroke-width="1.66539" stroke-linecap="round" stroke-linejoin="round"/>
<path d="M7.56934 7.49419C7.76511 6.93767 8.15152 6.4684 8.66013 6.16948C9.16874 5.87057 9.76673 5.7613 10.3482 5.86104C10.9296 5.96077 11.457 6.26307 11.837 6.71439C12.2169 7.16572 12.4248 7.73694 12.4239 8.32688C12.4239 9.99227 9.92586 10.825 9.92586 10.825" stroke="#06B6D4" stroke-width="1.66539" stroke-linecap="round" stroke-linejoin="round"/>
<path d="M9.99219 14.1558H10.0005" stroke="#06B6D4" stroke-width="1.66539" stroke-linecap="round" stroke-linejoin="round"/>
</svg>
