<svg width="40" height="40" viewBox="0 0 40 40" fill="none" xmlns="http://www.w3.org/2000/svg">
<path d="M19.9842 28.3201C24.583 28.3201 28.3111 24.592 28.3111 19.9932C28.3111 15.3944 24.583 11.6663 19.9842 11.6663C15.3853 11.6663 11.6572 15.3944 11.6572 19.9932C11.6572 24.592 15.3853 28.3201 19.9842 28.3201Z" stroke="#06B6D4" stroke-width="1.66539" stroke-linecap="round" stroke-linejoin="round"/>
<path d="M17.5615 17.495C17.7573 16.9385 18.1437 16.4693 18.6523 16.1703C19.1609 15.8714 19.7589 15.7622 20.3404 15.8619C20.9218 15.9616 21.4492 16.2639 21.8291 16.7152C22.2091 17.1666 22.417 17.7378 22.4161 18.3277C22.4161 19.9931 19.918 20.8258 19.918 20.8258" stroke="#06B6D4" stroke-width="1.66539" stroke-linecap="round" stroke-linejoin="round"/>
<path d="M19.9844 24.1566H19.9927" stroke="#06B6D4" stroke-width="1.66539" stroke-linecap="round" stroke-linejoin="round"/>
</svg>
