<svg width="24" height="24" viewBox="0 0 24 24" fill="none" xmlns="http://www.w3.org/2000/svg">
<g clip-path="url(#clip0_1_2271)">
<path d="M14.995 20.9926V12.9954C14.995 12.7303 14.8896 12.476 14.7022 12.2886C14.5147 12.1011 14.2604 11.9958 13.9953 11.9958H9.99672C9.7316 11.9958 9.47733 12.1011 9.28986 12.2886C9.10239 12.476 8.99707 12.7303 8.99707 12.9954V20.9926" stroke="#A1F301" stroke-width="2.49912" stroke-linecap="round" stroke-linejoin="round"/>
<path d="M2.99902 9.99651C2.99895 9.70568 3.06233 9.41834 3.18475 9.15452C3.30716 8.89071 3.48565 8.65678 3.70777 8.46905L10.7053 2.47216C11.0662 2.16718 11.5234 1.99985 11.9959 1.99985C12.4683 1.99985 12.9255 2.16718 13.2864 2.47216L20.2839 8.46905C20.5061 8.65678 20.6846 8.89071 20.807 9.15452C20.9294 9.41834 20.9928 9.70568 20.9927 9.99651V18.9933C20.9927 19.5236 20.7821 20.0321 20.4071 20.4071C20.0322 20.782 19.5236 20.9926 18.9934 20.9926H4.99832C4.46807 20.9926 3.95954 20.782 3.5846 20.4071C3.20966 20.0321 2.99902 19.5236 2.99902 18.9933V9.99651Z" stroke="#A1F301" stroke-width="2.49912" stroke-linecap="round" stroke-linejoin="round"/>
</g>
<defs>
<clipPath id="clip0_1_2271">
<rect width="23.9916" height="23.9916" fill="white"/>
</clipPath>
</defs>
</svg>
