<svg width="24" height="24" viewBox="0 0 24 24" fill="none" xmlns="http://www.w3.org/2000/svg">
<path d="M9.99609 12.9954C10.4254 13.5693 10.9731 14.0442 11.6021 14.3879C12.2311 14.7315 12.9266 14.9359 13.6415 14.9871C14.3564 15.0382 15.0739 14.9351 15.7454 14.6846C16.4169 14.4341 17.0267 14.0421 17.5334 13.5352L20.5324 10.5363C21.4429 9.5936 21.9467 8.33104 21.9353 7.02051C21.9239 5.70999 21.3982 4.45637 20.4715 3.52966C19.5448 2.60294 18.2912 2.07728 16.9806 2.06589C15.6701 2.05451 14.4076 2.5583 13.4649 3.46877L11.7455 5.17817" stroke="#06B6D4" stroke-width="1.9993" stroke-linecap="round" stroke-linejoin="round"/>
<path d="M13.995 10.9961C13.5657 10.4222 13.018 9.94732 12.389 9.60368C11.7601 9.26005 11.0645 9.0557 10.3497 9.0045C9.63476 8.9533 8.91722 9.05645 8.2457 9.30695C7.57418 9.55744 6.96438 9.94943 6.45767 10.4563L3.45873 13.4553C2.54826 14.3979 2.04446 15.6605 2.05585 16.971C2.06724 18.2816 2.5929 19.5352 3.51962 20.4619C4.44633 21.3886 5.69995 21.9143 7.01047 21.9257C8.321 21.937 9.58356 21.4333 10.5262 20.5228L12.2356 18.8134" stroke="#06B6D4" stroke-width="1.9993" stroke-linecap="round" stroke-linejoin="round"/>
</svg>
