<svg width="16" height="16" viewBox="0 0 16 16" fill="none" xmlns="http://www.w3.org/2000/svg">
<g clip-path="url(#clip0_1_3484)">
<path d="M13.3237 6.66197C13.3237 9.98829 9.63363 13.4525 8.39451 14.5224C8.27907 14.6092 8.13855 14.6562 7.99412 14.6562C7.84969 14.6562 7.70918 14.6092 7.59374 14.5224C6.35461 13.4525 2.66455 9.98829 2.66455 6.66197C2.66455 5.24848 3.22606 3.89288 4.22555 2.89339C5.22504 1.8939 6.58063 1.3324 7.99412 1.3324C9.40762 1.3324 10.7632 1.8939 11.7627 2.89339C12.7622 3.89288 13.3237 5.24848 13.3237 6.66197Z" stroke="#EC4899" stroke-width="1.33239" stroke-linecap="round" stroke-linejoin="round"/>
<path d="M7.9942 8.66057C9.09799 8.66057 9.99279 7.76577 9.99279 6.66198C9.99279 5.55819 9.09799 4.66339 7.9942 4.66339C6.8904 4.66339 5.99561 5.55819 5.99561 6.66198C5.99561 7.76577 6.8904 8.66057 7.9942 8.66057Z" stroke="#EC4899" stroke-width="1.33239" stroke-linecap="round" stroke-linejoin="round"/>
</g>
<defs>
<clipPath id="clip0_1_3484">
<rect width="15.9887" height="15.9887" fill="white"/>
</clipPath>
</defs>
</svg>
