<svg width="20" height="20" viewBox="0 0 20 20" fill="none" xmlns="http://www.w3.org/2000/svg">
<path d="M15.8211 9.15962H4.16343C3.24367 9.15962 2.49805 9.90524 2.49805 10.825V16.6539C2.49805 17.5736 3.24367 18.3193 4.16343 18.3193H15.8211C16.7409 18.3193 17.4865 17.5736 17.4865 16.6539V10.825C17.4865 9.90524 16.7409 9.15962 15.8211 9.15962Z" stroke="#A1F301" stroke-width="1.66539" stroke-linecap="round" stroke-linejoin="round"/>
<path d="M5.8291 9.15963V5.82886C5.8291 4.72464 6.26775 3.66564 7.04855 2.88484C7.82935 2.10404 8.88835 1.66539 9.99257 1.66539C11.0968 1.66539 12.1558 2.10404 12.9366 2.88484C13.7174 3.66564 14.156 4.72464 14.156 5.82886V9.15963" stroke="#A1F301" stroke-width="1.66539" stroke-linecap="round" stroke-linejoin="round"/>
</svg>
