<svg width="64" height="64" viewBox="0 0 64 64" fill="none" xmlns="http://www.w3.org/2000/svg">
<path d="M0 16C0 7.16345 7.16344 0 16 0H47.9984C56.835 0 63.9984 7.16344 63.9984 16V47.9984C63.9984 56.835 56.835 63.9984 47.9984 63.9984H16C7.16345 63.9984 0 56.835 0 47.9984V16Z" fill="#A1F301"/>
<path d="M27.9902 39.999V22.6661L43.9898 19.9995V37.3324" stroke="#0A0A0F" stroke-width="2.6666" stroke-linecap="round" stroke-linejoin="round"/>
<path d="M23.9901 43.999C26.1992 43.999 27.99 42.2081 27.99 39.999C27.99 37.79 26.1992 35.9991 23.9901 35.9991C21.7811 35.9991 19.9902 37.79 19.9902 39.999C19.9902 42.2081 21.7811 43.999 23.9901 43.999Z" stroke="#0A0A0F" stroke-width="2.6666" stroke-linecap="round" stroke-linejoin="round"/>
<path d="M39.9901 41.3323C42.1992 41.3323 43.99 39.5415 43.99 37.3324C43.99 35.1233 42.1992 33.3325 39.9901 33.3325C37.7811 33.3325 35.9902 35.1233 35.9902 37.3324C35.9902 39.5415 37.7811 41.3323 39.9901 41.3323Z" stroke="#0A0A0F" stroke-width="2.6666" stroke-linecap="round" stroke-linejoin="round"/>
</svg>
