<svg width="20" height="20" viewBox="0 0 20 20" fill="none" xmlns="http://www.w3.org/2000/svg">
<g clip-path="url(#clip0_463_3830)">
<path d="M14.9925 1.66602H4.99739C4.07737 1.66602 3.33154 2.41184 3.33154 3.33186V16.6586C3.33154 17.5786 4.07737 18.3245 4.99739 18.3245H14.9925C15.9125 18.3245 16.6583 17.5786 16.6583 16.6586V3.33186C16.6583 2.41184 15.9125 1.66602 14.9925 1.66602Z" stroke="#A1F301" stroke-width="1.66584" stroke-linecap="round" stroke-linejoin="round"/>
<path d="M7.49609 18.3244V14.9927H12.4936V18.3244" stroke="#A1F301" stroke-width="1.66584" stroke-linecap="round" stroke-linejoin="round"/>
<path d="M6.66357 4.99756H6.6719" stroke="#A1F301" stroke-width="1.66584" stroke-linecap="round" stroke-linejoin="round"/>
<path d="M13.3267 4.99756H13.335" stroke="#A1F301" stroke-width="1.66584" stroke-linecap="round" stroke-linejoin="round"/>
<path d="M9.99512 4.99756H10.0034" stroke="#A1F301" stroke-width="1.66584" stroke-linecap="round" stroke-linejoin="round"/>
<path d="M9.99512 8.3291H10.0034" stroke="#A1F301" stroke-width="1.66584" stroke-linecap="round" stroke-linejoin="round"/>
<path d="M9.99512 11.6611H10.0034" stroke="#A1F301" stroke-width="1.66584" stroke-linecap="round" stroke-linejoin="round"/>
<path d="M13.3267 8.3291H13.335" stroke="#A1F301" stroke-width="1.66584" stroke-linecap="round" stroke-linejoin="round"/>
<path d="M13.3267 11.6611H13.335" stroke="#A1F301" stroke-width="1.66584" stroke-linecap="round" stroke-linejoin="round"/>
<path d="M6.66357 8.3291H6.6719" stroke="#A1F301" stroke-width="1.66584" stroke-linecap="round" stroke-linejoin="round"/>
<path d="M6.66357 11.6611H6.6719" stroke="#A1F301" stroke-width="1.66584" stroke-linecap="round" stroke-linejoin="round"/>
</g>
<defs>
<clipPath id="clip0_463_3830">
<rect width="19.9901" height="19.9901" fill="white"/>
</clipPath>
</defs>
</svg>
