<svg width="40" height="40" viewBox="0 0 40 40" fill="none" xmlns="http://www.w3.org/2000/svg">
<path d="M22.4829 11.6663H14.9886C14.5469 11.6663 14.1233 11.8417 13.811 12.154C13.4987 12.4664 13.3232 12.89 13.3232 13.3316V26.6547C13.3232 27.0964 13.4987 27.52 13.811 27.8323C14.1233 28.1447 14.5469 28.3201 14.9886 28.3201H24.9809C25.4226 28.3201 25.8462 28.1447 26.1586 27.8323C26.4709 27.52 26.6463 27.0964 26.6463 26.6547V15.8297L22.4829 11.6663Z" stroke="#06B6D4" stroke-width="1.66539" stroke-linecap="round" stroke-linejoin="round"/>
<path d="M21.6494 11.6663V14.997C21.6494 15.4387 21.8249 15.8623 22.1372 16.1746C22.4495 16.487 22.8731 16.6624 23.3148 16.6624H26.6456" stroke="#06B6D4" stroke-width="1.66539" stroke-linecap="round" stroke-linejoin="round"/>
<path d="M18.3187 17.4951H16.6533" stroke="#06B6D4" stroke-width="1.66539" stroke-linecap="round" stroke-linejoin="round"/>
<path d="M23.3149 20.8259H16.6533" stroke="#06B6D4" stroke-width="1.66539" stroke-linecap="round" stroke-linejoin="round"/>
<path d="M23.3149 24.1566H16.6533" stroke="#06B6D4" stroke-width="1.66539" stroke-linecap="round" stroke-linejoin="round"/>
</svg>
