<svg width="16" height="16" viewBox="0 0 16 16" fill="none" xmlns="http://www.w3.org/2000/svg">
<path d="M10.1266 1.9986C10.4781 2.0036 10.8133 2.14727 11.0593 2.39831L13.5908 4.92986C13.8419 5.17586 13.9856 5.51109 13.9906 5.86254V12.6577C13.9906 13.0111 13.8502 13.35 13.6003 13.5999C13.3504 13.8498 13.0115 13.9901 12.6582 13.9901H3.33142C2.97804 13.9901 2.63914 13.8498 2.38927 13.5999C2.1394 13.35 1.99902 13.0111 1.99902 12.6577V3.33099C1.99902 2.97762 2.1394 2.63872 2.38927 2.38885C2.63914 2.13897 2.97804 1.9986 3.33142 1.9986H10.1266Z" stroke="#0A0A0F" stroke-width="1.33239" stroke-linecap="round" stroke-linejoin="round"/>
<path d="M11.3251 13.9901V9.32675C11.3251 9.15006 11.2549 8.98061 11.1299 8.85568C11.005 8.73074 10.8355 8.66055 10.6589 8.66055H5.32928C5.1526 8.66055 4.98315 8.73074 4.85821 8.85568C4.73327 8.98061 4.66309 9.15006 4.66309 9.32675V13.9901" stroke="#0A0A0F" stroke-width="1.33239" stroke-linecap="round" stroke-linejoin="round"/>
<path d="M4.66309 1.9986V4.66338C4.66309 4.84007 4.73327 5.00952 4.85821 5.13446C4.98315 5.25939 5.1526 5.32958 5.32928 5.32958H9.99266" stroke="#0A0A0F" stroke-width="1.33239" stroke-linecap="round" stroke-linejoin="round"/>
</svg>
