<svg width="40" height="40" viewBox="0 0 40 40" fill="none" xmlns="http://www.w3.org/2000/svg">
<g clip-path="url(#clip0_1369_277)">
<path d="M26.6463 20.8258C26.6463 24.9893 23.7319 27.071 20.2679 28.2784C20.0865 28.3399 19.8895 28.337 19.71 28.2701C16.2377 27.071 13.3232 24.9893 13.3232 20.8258V14.997C13.3232 14.7761 13.411 14.5643 13.5671 14.4082C13.7233 14.252 13.9351 14.1643 14.1559 14.1643C15.8213 14.1643 17.9031 13.1651 19.3519 11.8994C19.5284 11.7486 19.7528 11.6658 19.9848 11.6658C20.2168 11.6658 20.4412 11.7486 20.6176 11.8994C22.0748 13.1734 24.1483 14.1643 25.8136 14.1643C26.0345 14.1643 26.2463 14.252 26.4024 14.4082C26.5586 14.5643 26.6463 14.7761 26.6463 14.997V20.8258Z" stroke="#A1F301" stroke-width="1.66539" stroke-linecap="round" stroke-linejoin="round"/>
</g>
<defs>
<clipPath id="clip0_1369_277">
<rect width="19.9846" height="19.9846" fill="white" transform="translate(9.99219 10.0009)"/>
</clipPath>
</defs>
</svg>
