<svg width="16" height="16" viewBox="0 0 16 16" fill="none" xmlns="http://www.w3.org/2000/svg">
<g clip-path="url(#clip0_463_2530)">
<path d="M9.68383 14.447C9.70914 14.5101 9.75314 14.5639 9.80992 14.6012C9.86671 14.6386 9.93356 14.6577 10.0015 14.6559C10.0694 14.6542 10.1352 14.6317 10.19 14.5915C10.2448 14.5513 10.286 14.4953 10.3081 14.431L14.6383 1.77325C14.6597 1.71422 14.6637 1.65034 14.6501 1.58909C14.6364 1.52783 14.6056 1.47173 14.5612 1.42735C14.5168 1.38297 14.4607 1.35215 14.3995 1.33849C14.3382 1.32483 14.2743 1.3289 14.2153 1.35022L1.55756 5.6805C1.49327 5.70254 1.43727 5.74373 1.39706 5.79853C1.35685 5.85332 1.33437 5.91911 1.33263 5.98705C1.33089 6.055 1.34997 6.12185 1.38732 6.17863C1.42467 6.23541 1.4785 6.27941 1.54158 6.30472L6.82452 8.42323C6.99152 8.49009 7.14326 8.59008 7.27058 8.71717C7.3979 8.84426 7.49816 8.99582 7.56533 9.16271L9.68383 14.447Z" stroke="#0A0A0F" stroke-width="1.33239" stroke-linecap="round" stroke-linejoin="round"/>
<path d="M14.5592 1.43018L7.271 8.7177" stroke="#0A0A0F" stroke-width="1.33239" stroke-linecap="round" stroke-linejoin="round"/>
</g>
<defs>
<clipPath id="clip0_463_2530">
<rect width="15.9887" height="15.9887" fill="white"/>
</clipPath>
</defs>
</svg>
