<svg width="20" height="20" viewBox="0 0 20 20" fill="none" xmlns="http://www.w3.org/2000/svg">
<g clip-path="url(#clip0_1369_278)">
<path d="M16.6541 10.825C16.6541 14.9884 13.7397 17.0702 10.2757 18.2776C10.0943 18.3391 9.89729 18.3361 9.71781 18.2693C6.24548 17.0702 3.33105 14.9884 3.33105 10.825V4.99613C3.33105 4.77528 3.41878 4.56348 3.57495 4.40732C3.73111 4.25116 3.9429 4.16343 4.16375 4.16343C5.82913 4.16343 7.91087 3.1642 9.35975 1.89851C9.53616 1.74779 9.76057 1.66498 9.9926 1.66498C10.2246 1.66498 10.449 1.74779 10.6254 1.89851C12.0827 3.17253 14.1561 4.16343 15.8215 4.16343C16.0423 4.16343 16.2541 4.25116 16.4103 4.40732C16.5664 4.56348 16.6541 4.77528 16.6541 4.99613V10.825Z" stroke="#A1F301" stroke-width="1.66539" stroke-linecap="round" stroke-linejoin="round"/>
</g>
<defs>
<clipPath id="clip0_1369_278">
<rect width="19.9846" height="19.9846" fill="white"/>
</clipPath>
</defs>
</svg>
