<svg width="16" height="16" viewBox="0 0 16 16" fill="none" xmlns="http://www.w3.org/2000/svg">
<path d="M7.67778 1.52893C7.70697 1.46995 7.75207 1.4203 7.80799 1.38558C7.8639 1.35087 7.92841 1.33247 7.99422 1.33247C8.06003 1.33247 8.12454 1.35087 8.18045 1.38558C8.23637 1.4203 8.28147 1.46995 8.31066 1.52893L9.84958 4.64607C9.95096 4.85123 10.1006 5.02873 10.2857 5.16334C10.4708 5.29794 10.6857 5.38562 10.9122 5.41885L14.3537 5.9225C14.4189 5.93195 14.4802 5.95945 14.5306 6.00191C14.581 6.04436 14.6185 6.10007 14.6389 6.16273C14.6593 6.22539 14.6617 6.29251 14.6459 6.35648C14.6301 6.42046 14.5968 6.47874 14.5496 6.52474L12.0607 8.94836C11.8965 9.10832 11.7737 9.30577 11.7028 9.52371C11.6319 9.74165 11.615 9.97357 11.6536 10.1995L12.2412 13.6237C12.2527 13.6889 12.2457 13.756 12.2209 13.8174C12.1961 13.8788 12.1546 13.9319 12.101 13.9708C12.0475 14.0097 11.9841 14.0328 11.918 14.0374C11.852 14.042 11.786 14.0279 11.7276 13.9968L8.65109 12.3793C8.44838 12.2728 8.22285 12.2172 7.99389 12.2172C7.76493 12.2172 7.5394 12.2728 7.33668 12.3793L4.26085 13.9968C4.20245 14.0277 4.13654 14.0416 4.07062 14.0369C4.00471 14.0323 3.94143 14.0092 3.88798 13.9703C3.83454 13.9314 3.79307 13.8783 3.76831 13.8171C3.74354 13.7558 3.73646 13.6888 3.74788 13.6237L4.3348 10.2001C4.37357 9.97413 4.35678 9.74207 4.28586 9.52399C4.21495 9.30591 4.09205 9.10835 3.92776 8.94836L1.43885 6.52541C1.39127 6.47946 1.35756 6.42108 1.34156 6.35691C1.32555 6.29274 1.32788 6.22536 1.34829 6.16246C1.36871 6.09955 1.40638 6.04364 1.45702 6.0011C1.50765 5.95856 1.56922 5.93109 1.63471 5.92183L5.07561 5.41885C5.30229 5.38588 5.51756 5.29831 5.70289 5.16369C5.88823 5.02907 6.03807 4.85143 6.13953 4.64607L7.67778 1.52893Z" stroke="white" stroke-opacity="0.6" stroke-width="1.33239" stroke-linecap="round" stroke-linejoin="round"/>
</svg>
