<svg width="20" height="20" viewBox="0 0 20 20" fill="none" xmlns="http://www.w3.org/2000/svg">
<g clip-path="url(#clip0_459_6700)">
<path d="M13.3269 17.4912V15.8253C13.3269 14.9417 12.9759 14.0943 12.3511 13.4695C11.7263 12.8447 10.8789 12.4937 9.99524 12.4937H4.99771C4.11409 12.4937 3.26666 12.8447 2.64185 13.4695C2.01703 14.0943 1.66602 14.9417 1.66602 15.8253V17.4912" stroke="#60A5FA" stroke-width="1.66584" stroke-linecap="round" stroke-linejoin="round"/>
<path d="M7.49624 9.16191C9.33628 9.16191 10.8279 7.67027 10.8279 5.83022C10.8279 3.99018 9.33628 2.49854 7.49624 2.49854C5.6562 2.49854 4.16455 3.99018 4.16455 5.83022C4.16455 7.67027 5.6562 9.16191 7.49624 9.16191Z" stroke="#60A5FA" stroke-width="1.66584" stroke-linecap="round" stroke-linejoin="round"/>
<path d="M18.3245 17.4913V15.8255C18.3239 15.0873 18.0782 14.3702 17.6259 13.7867C17.1737 13.2033 16.5404 12.7866 15.8257 12.6021" stroke="#60A5FA" stroke-width="1.66584" stroke-linecap="round" stroke-linejoin="round"/>
<path d="M13.3267 2.60693C14.0433 2.79043 14.6785 3.20722 15.1321 3.79161C15.5857 4.37599 15.832 5.09473 15.832 5.83451C15.832 6.57429 15.5857 7.29302 15.1321 7.87741C14.6785 8.46179 14.0433 8.87859 13.3267 9.06208" stroke="#60A5FA" stroke-width="1.66584" stroke-linecap="round" stroke-linejoin="round"/>
</g>
<defs>
<clipPath id="clip0_459_6700">
<rect width="19.9901" height="19.9901" fill="white"/>
</clipPath>
</defs>
</svg>
