<svg width="40" height="40" viewBox="0 0 40 40" fill="none" xmlns="http://www.w3.org/2000/svg">
<path d="M25.8297 15.834V13.3352C25.8297 13.1143 25.7419 12.9025 25.5857 12.7463C25.4295 12.5901 25.2177 12.5023 24.9968 12.5023H14.1688C13.727 12.5023 13.3033 12.6778 12.9908 12.9902C12.6784 13.3026 12.5029 13.7263 12.5029 14.1681C12.5029 14.61 12.6784 15.0337 12.9908 15.3461C13.3033 15.6585 13.727 15.834 14.1688 15.834H26.6626C26.8835 15.834 27.0954 15.9217 27.2516 16.078C27.4078 16.2342 27.4955 16.446 27.4955 16.6669V19.9986M27.4955 19.9986H24.9968C24.555 19.9986 24.1312 20.1741 23.8188 20.4865C23.5064 20.7989 23.3309 21.2226 23.3309 21.6645C23.3309 22.1063 23.5064 22.53 23.8188 22.8424C24.1312 23.1548 24.555 23.3303 24.9968 23.3303H27.4955C27.7164 23.3303 27.9283 23.2425 28.0845 23.0863C28.2407 22.9301 28.3285 22.7183 28.3285 22.4974V20.8315C28.3285 20.6106 28.2407 20.3988 28.0845 20.2426C27.9283 20.0864 27.7164 19.9986 27.4955 19.9986Z" stroke="#8B5CF6" stroke-width="1.66584" stroke-linecap="round" stroke-linejoin="round"/>
<path d="M12.5029 14.1682V25.8291C12.5029 26.2709 12.6784 26.6946 12.9908 27.007C13.3033 27.3194 13.727 27.4949 14.1688 27.4949H26.6626C26.8835 27.4949 27.0954 27.4072 27.2516 27.251C27.4078 27.0948 27.4955 26.8829 27.4955 26.662V23.3303" stroke="#8B5CF6" stroke-width="1.66584" stroke-linecap="round" stroke-linejoin="round"/>
</svg>
